{
	"asset":{
		"generator":"Khronos glTF Blender I/O v5.1.19",
		"version":"2.0"
	},
	"scene":0,
	"scenes":[
		{
			"name":"Scene",
			"nodes":[
				36,
				37,
				39,
				40,
				41
			]
		}
	],
	"nodes":[
		{
			"name":"Head",
			"rotation":[
				-0.09941598773002625,
				-6.917652858688932e-15,
				-2.370261675821439e-08,
				0.9950459599494934
			],
			"translation":[
				3.796429837166215e-11,
				0.1863214373588562,
				1.3274581434075117e-09
			]
		},
		{
			"children":[
				0
			],
			"name":"Neck",
			"rotation":[
				-0.16569550335407257,
				4.052825224265489e-15,
				-3.9504893578623523e-08,
				0.9861769676208496
			],
			"translation":[
				8.86970497049333e-11,
				0.4747864603996277,
				-1.1711057901209188e-08
			]
		},
		{
			"children":[
				1
			],
			"name":"Chest",
			"rotation":[
				0.2629163861274719,
				-2.6580799783459952e-08,
				6.992753043277844e-08,
				0.9648185968399048
			],
			"translation":[
				-4.547794640874514e-10,
				0.2905731201171875,
				2.0206547546308684e-10
			]
		},
		{
			"name":"Wing Tip L",
			"rotation":[
				-0.047816868871450424,
				0.003775589168071747,
				-0.021385490894317627,
				0.9986200332641602
			],
			"scale":[
				0.9999999403953552,
				0.9999999403953552,
				1
			],
			"translation":[
				-1.3748922356171533e-07,
				0.37008747458457947,
				-6.984919309616089e-09
			]
		},
		{
			"children":[
				3
			],
			"name":"Middle Wing L",
			"rotation":[
				-0.06473936885595322,
				-0.0008855736814439297,
				0.014548121020197868,
				0.997795820236206
			],
			"scale":[
				1,
				0.9999999403953552,
				0.9999999403953552
			],
			"translation":[
				-6.270573038591465e-08,
				0.371989905834198,
				-1.8355457154228816e-09
			]
		},
		{
			"children":[
				4
			],
			"name":"Upper Wing L",
			"rotation":[
				1.4601728715035733e-09,
				2.3266257809240187e-09,
				-0.0067429025657474995,
				0.9999772906303406
			],
			"scale":[
				0.9999999403953552,
				0.9999999403953552,
				1
			],
			"translation":[
				-5.7697255861910435e-09,
				0.382726788520813,
				8.870448819919829e-10
			]
		},
		{
			"children":[
				5
			],
			"name":"Shoulder L",
			"rotation":[
				-1.8198973350536107e-07,
				-2.7642574451647306e-08,
				0.7168567180633545,
				0.6972205638885498
			],
			"scale":[
				0.9999999403953552,
				0.9999999403953552,
				1
			],
			"translation":[
				-4.547794640874514e-10,
				0.2905731201171875,
				2.0206547546308684e-10
			]
		},
		{
			"name":"Tail",
			"rotation":[
				-0.04568532854318619,
				-0.013555259443819523,
				0.0238832775503397,
				0.9985783696174622
			],
			"scale":[
				0.9999999403953552,
				1.0000001192092896,
				0.9999999403953552
			],
			"translation":[
				-9.778887033462524e-09,
				0.5563889741897583,
				-7.310882210731506e-08
			]
		},
		{
			"children":[
				7
			],
			"name":"Back",
			"rotation":[
				-0.5506148338317871,
				-0.23015598952770233,
				0.16884084045886993,
				0.7844388484954834
			],
			"scale":[
				0.9999999403953552,
				1,
				1
			],
			"translation":[
				-4.547794640874514e-10,
				0.2905731201171875,
				2.0206547546308684e-10
			]
		},
		{
			"name":"Toes R",
			"rotation":[
				-0.028056710958480835,
				-4.369420381067357e-08,
				-1.884133560281498e-08,
				0.9996063709259033
			],
			"translation":[
				-6.1571299170282145e-09,
				0.15862643718719482,
				1.5143328369049414e-08
			]
		},
		{
			"children":[
				9
			],
			"name":"Foot Upper R",
			"rotation":[
				-0.1679883599281311,
				-3.3336343668172175e-14,
				-1.2015463823900063e-07,
				0.9857890009880066
			],
			"scale":[
				1,
				1.0000001192092896,
				1
			],
			"translation":[
				-7.774048071951256e-09,
				0.1252504587173462,
				2.1048407461421448e-09
			]
		},
		{
			"children":[
				10
			],
			"name":"Ankle R",
			"rotation":[
				-0.5573013424873352,
				1.7115113850902502e-14,
				-3.9861302525423525e-07,
				0.8303102850914001
			],
			"translation":[
				-1.0017939811035603e-09,
				0.1722443699836731,
				6.121183560026111e-09
			]
		},
		{
			"children":[
				11
			],
			"name":"Knee R",
			"rotation":[
				0.000795265194028616,
				-2.7525627176866463e-13,
				4.410218371053709e-11,
				0.9999997019767761
			],
			"translation":[
				-1.587757658683131e-08,
				0.24886159598827362,
				3.967443262808956e-09
			]
		},
		{
			"children":[
				12
			],
			"name":"Upper Leg R",
			"rotation":[
				-0.9999984502792358,
				9.016607460665682e-10,
				-5.043854116593138e-07,
				0.0017876398051157594
			],
			"scale":[
				1,
				0.9999999403953552,
				0.9999999403953552
			],
			"translation":[
				0.1614374965429306,
				-0.012595832347869873,
				-0.005125002004206181
			]
		},
		{
			"name":"Wing Tip R",
			"rotation":[
				-0.047816868871450424,
				-0.003775589168071747,
				0.021385490894317627,
				0.9986200332641602
			],
			"scale":[
				0.9999999403953552,
				0.9999999403953552,
				1
			],
			"translation":[
				7.788457878632471e-08,
				0.37008753418922424,
				-2.1886080503463745e-08
			]
		},
		{
			"children":[
				14
			],
			"name":"Middle Wing R",
			"rotation":[
				-0.06473936885595322,
				0.0008855736814439297,
				-0.014548121020197868,
				0.997795820236206
			],
			"scale":[
				1,
				0.9999999403953552,
				0.9999999403953552
			],
			"translation":[
				-8.074785284861719e-09,
				0.37199002504348755,
				-1.7518926309634253e-09
			]
		},
		{
			"children":[
				15
			],
			"name":"Upper Wing R",
			"rotation":[
				1.4602014042353062e-09,
				-2.326589809698021e-09,
				0.0067429025657474995,
				0.9999772906303406
			],
			"scale":[
				0.9999999403953552,
				0.9999999403953552,
				1
			],
			"translation":[
				-2.403259458105822e-08,
				0.382726788520813,
				1.0462923860643514e-09
			]
		},
		{
			"children":[
				16
			],
			"name":"Shoulder R",
			"rotation":[
				2.842104684930291e-08,
				-1.7700466514725122e-07,
				-0.7168567180633545,
				0.6972205638885498
			],
			"scale":[
				0.9999999403953552,
				0.9999999403953552,
				1
			],
			"translation":[
				-4.547794640874514e-10,
				0.2905731201171875,
				2.0206547546308684e-10
			]
		},
		{
			"name":"Toes L",
			"rotation":[
				-0.028056710958480835,
				4.369420381067357e-08,
				1.884133560281498e-08,
				0.9996063709259033
			],
			"translation":[
				6.1571299170282145e-09,
				0.15862643718719482,
				1.0903868030709418e-08
			]
		},
		{
			"children":[
				18
			],
			"name":"Foot Upper L",
			"rotation":[
				-0.1679883599281311,
				5.5860901299574495e-14,
				1.2015463823900063e-07,
				0.9857890009880066
			],
			"scale":[
				1,
				1.0000001192092896,
				1
			],
			"translation":[
				-7.1271131218964e-09,
				0.1252504587173462,
				5.315968110153335e-09
			]
		},
		{
			"children":[
				19
			],
			"name":"Ankle L",
			"rotation":[
				-0.5573013424873352,
				0,
				3.986130536759447e-07,
				0.8303102850914001
			],
			"translation":[
				1.0017930929251406e-09,
				0.1722443699836731,
				5.607006414720672e-09
			]
		},
		{
			"children":[
				20
			],
			"name":"Knee L",
			"rotation":[
				0.000795265194028616,
				-5.310537166264284e-13,
				-1.093533152918269e-09,
				0.9999997019767761
			],
			"translation":[
				3.7281713827219676e-10,
				0.24886159598827362,
				1.5906351791272755e-09
			]
		},
		{
			"children":[
				21
			],
			"name":"Upper Leg L",
			"rotation":[
				-0.9999984502792358,
				-3.7695857546538036e-10,
				2.1086908930101345e-07,
				0.0017876398051157594
			],
			"scale":[
				1,
				0.9999999403953552,
				0.9999999403953552
			],
			"translation":[
				-0.1614374965429306,
				-0.012595832347869873,
				-0.005125096533447504
			]
		},
		{
			"children":[
				2,
				6,
				8,
				13,
				17,
				22
			],
			"name":"Center",
			"rotation":[
				0.5,
				-0.4999999701976776,
				0.5,
				0.5000000596046448
			],
			"translation":[
				-0.4564304053783417,
				0.38909098505973816,
				-3.227395382054965e-07
			]
		},
		{
			"name":"Foot IK R",
			"rotation":[
				-0.6934507489204407,
				-0.138295978307724,
				-0.6934511661529541,
				0.13829635083675385
			],
			"scale":[
				0.9999992251396179,
				0.9999999403953552,
				0.9999999403953552
			],
			"translation":[
				-0.02273237146437168,
				0.39599552750587463,
				0.16143712401390076
			]
		},
		{
			"name":"Wing IK L",
			"rotation":[
				0.014373013749718666,
				0.7512288093566895,
				-0.6596845388412476,
				0.016279123723506927
			],
			"scale":[
				1,
				1.000000238418579,
				1
			],
			"translation":[
				-0.7310627102851868,
				0.3890910744667053,
				-0.7545315623283386
			]
		},
		{
			"name":"Wing Rotate IK L",
			"rotation":[
				0.00029951173928566277,
				0.99921715259552,
				0.038799937814474106,
				0.007713345345109701
			],
			"scale":[
				1,
				0.9999998807907104,
				1
			],
			"translation":[
				-0.7310627102851868,
				0.7743271589279175,
				-0.7545314431190491
			]
		},
		{
			"name":"Feet IK R",
			"rotation":[
				5.6071208121011296e-08,
				-0.7071067094802856,
				-5.607120101558394e-08,
				0.7071068286895752
			],
			"translation":[
				-0.16331396996974945,
				-0.07984641194343567,
				0.1614370495080948
			]
		},
		{
			"name":"Foot IK L",
			"rotation":[
				-0.6934512257575989,
				-0.138295978307724,
				-0.6934506893157959,
				0.13829614222049713
			],
			"scale":[
				0.9999992251396179,
				0.9999999403953552,
				0.9999999403953552
			],
			"translation":[
				-0.02273239567875862,
				0.3959955871105194,
				-0.16143786907196045
			]
		},
		{
			"name":"Wing IK R",
			"rotation":[
				0.6596848368644714,
				0.016279131174087524,
				-0.014372997917234898,
				0.7512285709381104
			],
			"translation":[
				-0.731062650680542,
				0.389090895652771,
				0.7545309662818909
			]
		},
		{
			"name":"Wing Rotate IK R",
			"rotation":[
				-0.03879978135228157,
				0.0077134473249316216,
				-0.00029951450414955616,
				0.99921715259552
			],
			"scale":[
				1,
				0.9999999403953552,
				1
			],
			"translation":[
				-0.731062650680542,
				0.7743269205093384,
				0.7545310854911804
			]
		},
		{
			"name":"Feet IK L",
			"rotation":[
				5.6071208121011296e-08,
				-0.7071067094802856,
				-5.607120101558394e-08,
				0.7071068286895752
			],
			"translation":[
				-0.16331399977207184,
				-0.07984641939401627,
				-0.16143794357776642
			]
		},
		{
			"children":[
				23,
				24,
				25,
				26,
				27,
				28,
				29,
				30,
				31
			],
			"name":"Body IK",
			"rotation":[
				-0.5000000596046448,
				0.5,
				-0.4999999701976776,
				0.5
			],
			"translation":[
				4.237517714500427e-07,
				-0.4444442689418793,
				0.11809727549552917
			]
		},
		{
			"name":"neutral_bone",
			"rotation":[
				-0.7071067690849304,
				0,
				0,
				0.7071067690849304
			]
		},
		{
			"mesh":0,
			"name":"beak",
			"skin":0
		},
		{
			"mesh":1,
			"name":"gull.001",
			"skin":0
		},
		{
			"children":[
				34,
				35,
				32,
				33
			],
			"name":"Armature",
			"scale":[
				0.24370217323303223,
				0.24370217323303223,
				0.24370217323303223
			],
			"translation":[
				0.003260798752307892,
				0.13086272776126862,
				0.07260537892580032
			]
		},
		{
			"mesh":2,
			"name":"eyes",
			"rotation":[
				0.5861111879348755,
				-0.05649130791425705,
				-0.01055807713419199,
				0.8081899285316467
			],
			"scale":[
				1.390949010848999,
				1.3909491300582886,
				1.3909491300582886
			],
			"translation":[
				0.03944700211286545,
				0.43486157059669495,
				0.1405276656150818
			]
		},
		{
			"name":"CollisionShape3D",
			"translation":[
				0,
				0.25,
				0
			]
		},
		{
			"children":[
				38
			],
			"name":"Area3D"
		},
		{
			"name":"left_ray",
			"translation":[
				0,
				0.20000000298023224,
				0
			]
		},
		{
			"name":"right_ray",
			"translation":[
				0,
				0.20000000298023224,
				0
			]
		}
	],
	"materials":[
		{
			"doubleSided":true,
			"name":"black",
			"pbrMetallicRoughness":{
				"baseColorFactor":[
					0.021943429484963417,
					0.02474600449204445,
					0.02420208603143692,
					1
				],
				"metallicFactor":0
			}
		},
		{
			"doubleSided":true,
			"name":"orange",
			"pbrMetallicRoughness":{
				"baseColorFactor":[
					0.6656570434570312,
					0.3100772500038147,
					0.013757824897766113,
					1
				],
				"metallicFactor":0
			}
		},
		{
			"name":"white",
			"pbrMetallicRoughness":{
				"baseColorFactor":[
					0.735832929611206,
					0.735832929611206,
					0.735832929611206,
					1
				],
				"metallicFactor":0
			}
		},
		{
			"doubleSided":true,
			"name":"gray",
			"pbrMetallicRoughness":{
				"baseColorFactor":[
					0.2573569715023041,
					0.2573569715023041,
					0.2573569715023041,
					1
				],
				"metallicFactor":0
			}
		},
		{
			"doubleSided":true,
			"name":"white-2",
			"pbrMetallicRoughness":{
				"metallicFactor":0,
				"roughnessFactor":0.5
			}
		}
	],
	"meshes":[
		{
			"name":"Cube.001",
			"primitives":[
				{
					"attributes":{
						"POSITION":0,
						"NORMAL":1,
						"TEXCOORD_0":2,
						"JOINTS_0":3,
						"WEIGHTS_0":4
					},
					"indices":5,
					"material":0
				},
				{
					"attributes":{
						"POSITION":6,
						"NORMAL":7,
						"TEXCOORD_0":8,
						"JOINTS_0":9,
						"WEIGHTS_0":10
					},
					"indices":11,
					"material":1
				}
			]
		},
		{
			"name":"Cube.007",
			"primitives":[
				{
					"attributes":{
						"POSITION":13,
						"NORMAL":14,
						"TEXCOORD_0":15,
						"JOINTS_0":16,
						"WEIGHTS_0":17
					},
					"indices":18,
					"material":0
				},
				{
					"attributes":{
						"POSITION":19,
						"NORMAL":20,
						"TEXCOORD_0":21,
						"JOINTS_0":22,
						"WEIGHTS_0":23
					},
					"indices":24,
					"material":1
				},
				{
					"attributes":{
						"POSITION":25,
						"NORMAL":26,
						"TEXCOORD_0":27,
						"JOINTS_0":28,
						"WEIGHTS_0":29
					},
					"indices":30,
					"material":2
				},
				{
					"attributes":{
						"POSITION":31,
						"NORMAL":32,
						"TEXCOORD_0":33,
						"JOINTS_0":34,
						"WEIGHTS_0":35
					},
					"indices":36,
					"material":3
				}
			]
		},
		{
			"name":"Circle",
			"primitives":[
				{
					"attributes":{
						"POSITION":37,
						"NORMAL":38,
						"TEXCOORD_0":39
					},
					"indices":40,
					"material":0
				},
				{
					"attributes":{
						"POSITION":41,
						"NORMAL":42,
						"TEXCOORD_0":43
					},
					"indices":44,
					"material":4
				}
			]
		}
	],
	"skins":[
		{
			"inverseBindMatrices":12,
			"joints":[
				32,
				23,
				2,
				1,
				0,
				6,
				5,
				4,
				3,
				8,
				7,
				13,
				12,
				11,
				10,
				9,
				17,
				16,
				15,
				14,
				22,
				21,
				20,
				19,
				18,
				24,
				25,
				26,
				27,
				28,
				29,
				30,
				31,
				33
			],
			"name":"Armature"
		}
	],
	"accessors":[
		{
			"bufferView":0,
			"componentType":5126,
			"count":55,
			"max":[
				0.021855110302567482,
				0.40166255831718445,
				0.26170891523361206
			],
			"min":[
				-0.014728117734193802,
				0.37034693360328674,
				0.23762845993041992
			],
			"type":"VEC3"
		},
		{
			"bufferView":1,
			"componentType":5126,
			"count":55,
			"type":"VEC3"
		},
		{
			"bufferView":2,
			"componentType":5126,
			"count":55,
			"type":"VEC2"
		},
		{
			"bufferView":3,
			"componentType":5121,
			"count":55,
			"type":"VEC4"
		},
		{
			"bufferView":4,
			"componentType":5126,
			"count":55,
			"type":"VEC4"
		},
		{
			"bufferView":5,
			"componentType":5123,
			"count":120,
			"type":"SCALAR"
		},
		{
			"bufferView":6,
			"componentType":5126,
			"count":56,
			"max":[
				0.0335603766143322,
				0.4129391312599182,
				0.24185912311077118
			],
			"min":[
				-0.02756810560822487,
				0.35883828997612,
				0.14352694153785706
			],
			"type":"VEC3"
		},
		{
			"bufferView":7,
			"componentType":5126,
			"count":56,
			"type":"VEC3"
		},
		{
			"bufferView":8,
			"componentType":5126,
			"count":56,
			"type":"VEC2"
		},
		{
			"bufferView":9,
			"componentType":5121,
			"count":56,
			"type":"VEC4"
		},
		{
			"bufferView":10,
			"componentType":5126,
			"count":56,
			"type":"VEC4"
		},
		{
			"bufferView":11,
			"componentType":5123,
			"count":144,
			"type":"SCALAR"
		},
		{
			"bufferView":12,
			"componentType":5126,
			"count":34,
			"type":"MAT4"
		},
		{
			"bufferView":13,
			"componentType":5126,
			"count":1028,
			"max":[
				0.3486400842666626,
				0.4129391014575958,
				0.15443041920661926
			],
			"min":[
				-0.34199175238609314,
				0.18803627789020538,
				-0.2877095937728882
			],
			"type":"VEC3"
		},
		{
			"bufferView":14,
			"componentType":5126,
			"count":1028,
			"type":"VEC3"
		},
		{
			"bufferView":15,
			"componentType":5126,
			"count":1028,
			"type":"VEC2"
		},
		{
			"bufferView":16,
			"componentType":5121,
			"count":1028,
			"type":"VEC4"
		},
		{
			"bufferView":17,
			"componentType":5126,
			"count":1028,
			"type":"VEC4"
		},
		{
			"bufferView":18,
			"componentType":5123,
			"count":4680,
			"type":"SCALAR"
		},
		{
			"bufferView":19,
			"componentType":5126,
			"count":3982,
			"max":[
				0.07377523183822632,
				0.12155377864837646,
				0.11075083911418915
			],
			"min":[
				-0.06712693721055984,
				0.005232319235801697,
				-0.031277209520339966
			],
			"type":"VEC3"
		},
		{
			"bufferView":20,
			"componentType":5126,
			"count":3982,
			"type":"VEC3"
		},
		{
			"bufferView":21,
			"componentType":5126,
			"count":3982,
			"type":"VEC2"
		},
		{
			"bufferView":22,
			"componentType":5121,
			"count":3982,
			"type":"VEC4"
		},
		{
			"bufferView":23,
			"componentType":5126,
			"count":3982,
			"type":"VEC4"
		},
		{
			"bufferView":24,
			"componentType":5123,
			"count":20736,
			"type":"SCALAR"
		},
		{
			"bufferView":25,
			"componentType":5126,
			"count":454,
			"max":[
				0.09511255472898483,
				0.48054420948028564,
				0.15590085089206696
			],
			"min":[
				-0.0947175845503807,
				0.09836816787719727,
				-0.24121767282485962
			],
			"type":"VEC3"
		},
		{
			"bufferView":26,
			"componentType":5126,
			"count":454,
			"type":"VEC3"
		},
		{
			"bufferView":27,
			"componentType":5126,
			"count":454,
			"type":"VEC2"
		},
		{
			"bufferView":28,
			"componentType":5121,
			"count":454,
			"type":"VEC4"
		},
		{
			"bufferView":29,
			"componentType":5126,
			"count":454,
			"type":"VEC4"
		},
		{
			"bufferView":30,
			"componentType":5123,
			"count":1890,
			"type":"SCALAR"
		},
		{
			"bufferView":31,
			"componentType":5126,
			"count":2798,
			"max":[
				0.30804386734962463,
				0.30581942200660706,
				0.06702952831983566
			],
			"min":[
				-0.29853367805480957,
				0.16828732192516327,
				-0.12859244644641876
			],
			"type":"VEC3"
		},
		{
			"bufferView":32,
			"componentType":5126,
			"count":2798,
			"type":"VEC3"
		},
		{
			"bufferView":33,
			"componentType":5126,
			"count":2798,
			"type":"VEC2"
		},
		{
			"bufferView":34,
			"componentType":5121,
			"count":2798,
			"type":"VEC4"
		},
		{
			"bufferView":35,
			"componentType":5126,
			"count":2798,
			"type":"VEC4"
		},
		{
			"bufferView":36,
			"componentType":5123,
			"count":14190,
			"type":"SCALAR"
		},
		{
			"bufferView":37,
			"componentType":5126,
			"count":50,
			"max":[
				0.0064765214920043945,
				0.0031885774806141853,
				0.01179848238825798
			],
			"min":[
				-0.058098483830690384,
				5.7529348396201385e-08,
				-0.0064765820279717445
			],
			"type":"VEC3"
		},
		{
			"bufferView":38,
			"componentType":5126,
			"count":50,
			"type":"VEC3"
		},
		{
			"bufferView":39,
			"componentType":5126,
			"count":50,
			"type":"VEC2"
		},
		{
			"bufferView":40,
			"componentType":5123,
			"count":192,
			"type":"SCALAR"
		},
		{
			"bufferView":41,
			"componentType":5126,
			"count":144,
			"max":[
				0.010388774797320366,
				0.0035733801778405905,
				0.01578248292207718
			],
			"min":[
				-0.06202561780810356,
				5.7529348396201385e-08,
				-0.010388851165771484
			],
			"type":"VEC3"
		},
		{
			"bufferView":42,
			"componentType":5126,
			"count":144,
			"type":"VEC3"
		},
		{
			"bufferView":43,
			"componentType":5126,
			"count":144,
			"type":"VEC2"
		},
		{
			"bufferView":44,
			"componentType":5123,
			"count":576,
			"type":"SCALAR"
		}
	],
	"bufferViews":[
		{
			"buffer":0,
			"byteLength":660,
			"byteOffset":0,
			"target":34962
		},
		{
			"buffer":0,
			"byteLength":660,
			"byteOffset":660,
			"target":34962
		},
		{
			"buffer":0,
			"byteLength":440,
			"byteOffset":1320,
			"target":34962
		},
		{
			"buffer":0,
			"byteLength":220,
			"byteOffset":1760,
			"target":34962
		},
		{
			"buffer":0,
			"byteLength":880,
			"byteOffset":1980,
			"target":34962
		},
		{
			"buffer":0,
			"byteLength":240,
			"byteOffset":2860,
			"target":34963
		},
		{
			"buffer":0,
			"byteLength":672,
			"byteOffset":3100,
			"target":34962
		},
		{
			"buffer":0,
			"byteLength":672,
			"byteOffset":3772,
			"target":34962
		},
		{
			"buffer":0,
			"byteLength":448,
			"byteOffset":4444,
			"target":34962
		},
		{
			"buffer":0,
			"byteLength":224,
			"byteOffset":4892,
			"target":34962
		},
		{
			"buffer":0,
			"byteLength":896,
			"byteOffset":5116,
			"target":34962
		},
		{
			"buffer":0,
			"byteLength":288,
			"byteOffset":6012,
			"target":34963
		},
		{
			"buffer":0,
			"byteLength":2176,
			"byteOffset":6300
		},
		{
			"buffer":0,
			"byteLength":12336,
			"byteOffset":8476,
			"target":34962
		},
		{
			"buffer":0,
			"byteLength":12336,
			"byteOffset":20812,
			"target":34962
		},
		{
			"buffer":0,
			"byteLength":8224,
			"byteOffset":33148,
			"target":34962
		},
		{
			"buffer":0,
			"byteLength":4112,
			"byteOffset":41372,
			"target":34962
		},
		{
			"buffer":0,
			"byteLength":16448,
			"byteOffset":45484,
			"target":34962
		},
		{
			"buffer":0,
			"byteLength":9360,
			"byteOffset":61932,
			"target":34963
		},
		{
			"buffer":0,
			"byteLength":47784,
			"byteOffset":71292,
			"target":34962
		},
		{
			"buffer":0,
			"byteLength":47784,
			"byteOffset":119076,
			"target":34962
		},
		{
			"buffer":0,
			"byteLength":31856,
			"byteOffset":166860,
			"target":34962
		},
		{
			"buffer":0,
			"byteLength":15928,
			"byteOffset":198716,
			"target":34962
		},
		{
			"buffer":0,
			"byteLength":63712,
			"byteOffset":214644,
			"target":34962
		},
		{
			"buffer":0,
			"byteLength":41472,
			"byteOffset":278356,
			"target":34963
		},
		{
			"buffer":0,
			"byteLength":5448,
			"byteOffset":319828,
			"target":34962
		},
		{
			"buffer":0,
			"byteLength":5448,
			"byteOffset":325276,
			"target":34962
		},
		{
			"buffer":0,
			"byteLength":3632,
			"byteOffset":330724,
			"target":34962
		},
		{
			"buffer":0,
			"byteLength":1816,
			"byteOffset":334356,
			"target":34962
		},
		{
			"buffer":0,
			"byteLength":7264,
			"byteOffset":336172,
			"target":34962
		},
		{
			"buffer":0,
			"byteLength":3780,
			"byteOffset":343436,
			"target":34963
		},
		{
			"buffer":0,
			"byteLength":33576,
			"byteOffset":347216,
			"target":34962
		},
		{
			"buffer":0,
			"byteLength":33576,
			"byteOffset":380792,
			"target":34962
		},
		{
			"buffer":0,
			"byteLength":22384,
			"byteOffset":414368,
			"target":34962
		},
		{
			"buffer":0,
			"byteLength":11192,
			"byteOffset":436752,
			"target":34962
		},
		{
			"buffer":0,
			"byteLength":44768,
			"byteOffset":447944,
			"target":34962
		},
		{
			"buffer":0,
			"byteLength":28380,
			"byteOffset":492712,
			"target":34963
		},
		{
			"buffer":0,
			"byteLength":600,
			"byteOffset":521092,
			"target":34962
		},
		{
			"buffer":0,
			"byteLength":600,
			"byteOffset":521692,
			"target":34962
		},
		{
			"buffer":0,
			"byteLength":400,
			"byteOffset":522292,
			"target":34962
		},
		{
			"buffer":0,
			"byteLength":384,
			"byteOffset":522692,
			"target":34963
		},
		{
			"buffer":0,
			"byteLength":1728,
			"byteOffset":523076,
			"target":34962
		},
		{
			"buffer":0,
			"byteLength":1728,
			"byteOffset":524804,
			"target":34962
		},
		{
			"buffer":0,
			"byteLength":1152,
			"byteOffset":526532,
			"target":34962
		},
		{
			"buffer":0,
			"byteLength":1152,
			"byteOffset":527684,
			"target":34963
		}
	],
	"buffers":[
		{
			"byteLength":528836,
			"uri":"gull%2Brig.bin"
		}
	]
}
